<svg xmlns="http://www.w3.org/2000/svg" width="87" height="118" viewBox="0 0 87 118" fill="none">
  <path d="M35.5342 117.919C22.3072 117.75 10.0546 108.739 4.31804 96.819C-1.41847 84.8989 -1.12665 70.6299 3.35087 58.1825C7.82838 45.7351 16.1902 34.9746 25.8936 25.9842C20.3663 33.9666 17.1028 43.4993 16.5791 53.1944C34.1356 42.8683 40.0453 16.9075 28.6879 0C43.8085 9.33674 58.1237 20.6336 67.965 35.4306C77.8063 50.2276 82.7494 68.9556 78.2245 86.1418C73.7003 103.327 58.4742 118.213 35.5342 117.919Z" fill="#FFE276"/>
  <path d="M44.4101 95.4183C41.2089 97.3131 36.9196 96.5616 34.8366 93.4797C34.8253 93.4636 34.8145 93.4468 34.8031 93.43C33.6981 91.7695 33.2666 89.5056 34.2596 87.7756C35.0098 86.468 36.5145 85.4931 36.5954 83.9878C36.6787 82.4388 35.2202 81.3188 34.362 80.0268C32.943 77.8893 33.1851 74.9333 34.5023 72.7311C35.8194 70.5289 38.0444 69.0002 40.3994 67.9797C38.8569 69.7277 37.209 71.8029 37.5434 74.1099C37.9377 76.8287 40.7859 78.325 43.03 79.91C45.8674 81.9144 48.2434 84.8938 48.5796 88.3514C48.8199 90.8137 47.7406 93.4468 44.4101 95.4183Z" fill="#D44A15" stroke="#560000" stroke-width="2.5" stroke-miterlimit="10" stroke-linecap="round" stroke-linejoin="round"/>
  <path d="M61.9036 81.0783C64.5672 79.3483 66.6933 76.928 68.8757 74.6203C71.0581 72.3127 73.3964 70.0427 76.2949 68.743C79.1928 67.4432 82.5671 68.4829 85.35 70.0523C79.9239 67.9166 76.501 70.485 73.6325 74.0277C70.7633 77.5704 69.2754 82.0024 67.7312 86.2791C67.7527 86.2198 67.7743 86.1605 61.9036 81.0783Z" fill="#722A2A" stroke="#560000" stroke-width="2.5" stroke-miterlimit="10" stroke-linecap="round" stroke-linejoin="round"/>
  <path d="M65.8956 77.1008C63.7509 76.2211 61.3222 76.1582 59.1068 76.8407C54.2901 78.3256 51.0351 81.981 47.7201 85.4362C43.8622 89.4565 39.6837 93.3815 34.5303 95.4998C29.3768 97.6181 23.0177 97.6044 18.6462 94.1491C15.037 91.2968 13.5845 85.7934 15.4361 81.7761C15.8993 80.7717 14.6403 79.8231 13.781 80.5195C11.3643 82.4772 10.0184 86.7216 10.0603 89.9377C10.1574 97.397 15.1083 102.889 21.951 105.964C26.0504 107.806 30.5927 108.489 35.0774 108.196C45.1296 107.54 53.9114 102.826 62.2079 97.6547C65.8513 95.3836 69.6241 92.7889 71.3079 88.8399C72.9654 84.9496 71.5368 79.4151 65.8956 77.1008Z" fill="#778B28" stroke="#560000" stroke-width="2.5" stroke-miterlimit="10" stroke-linecap="round" stroke-linejoin="round"/>
</svg>