 <svg
          xmlns="http://www.w3.org/2000/svg"
          width="87"
          height="118"
          viewBox="0 0 87 118"
          fill="none"
        >
          <path
            d="M35.5332 117.917C22.306 117.747 10.0543 108.736 4.31793 96.8167C-1.41843 84.8969 -1.12662 70.6282 3.35078 58.1812C7.82817 45.7341 16.1897 34.9739 25.893 25.9831C20.3657 33.9654 17.1029 43.4978 16.5786 53.1926C34.1347 42.8668 40.0442 16.9067 28.6871 -0.000976562C43.8073 9.33552 58.1221 20.6321 67.9632 35.4293C77.8042 50.2265 82.7472 68.9534 78.2225 86.1385C73.6983 103.325 58.4721 118.21 35.5332 117.917Z"
            fill="#FE513E"
          />
          <path
            d="M42.0793 93.5964C33.3336 94.3377 24.3758 89.3144 20.4461 81.4664C16.5164 73.6183 17.8617 63.4369 23.6945 56.8784C20.9261 61.6524 20.8968 67.8958 23.6196 72.6955C25.0176 75.1595 27.991 77.4144 30.4897 76.0787C32.7764 74.8569 32.8435 71.5216 31.8314 69.1349C30.8187 66.7482 29.054 64.6432 28.6249 62.0863C28.0485 58.6503 29.9948 55.372 31.1465 52.0841C32.2982 48.7961 32.2412 44.3403 29.1511 42.732C32.5876 43.5224 35.1936 46.9979 34.9899 50.5183C40.4644 46.543 41.1002 37.4445 36.2309 32.7465C41.7689 32.6363 47.3087 35.0463 51.0035 39.1732C54.6983 43.3006 56.4828 49.0718 55.7625 54.5642C57.8616 52.6144 59.1667 49.8334 59.3255 46.9733C61.3887 49.2743 61.6679 52.6647 61.3695 55.7411C61.0711 58.8175 60.3029 61.8933 60.6738 64.9614C61.0447 68.03 62.9604 71.2161 65.9961 71.7961C64.7479 69.4573 64.8743 66.4462 66.3143 64.2201C68.345 70.6696 70.1643 77.9939 66.9021 83.916C64.8689 87.6072 61.1106 90.1023 57.1258 91.4734C53.1415 92.845 48.8793 93.02 42.0793 93.5964Z"
            fill="#D83624"
          />
          <mask
            id="mask0_237_216"
            maskUnits="userSpaceOnUse"
            x="18"
            y="32"
            width="51"
            height="62"
          >
            <path
              d="M42.0795 93.5996C33.3338 94.3408 24.376 89.3176 20.4463 81.4695C16.5166 73.6215 17.8619 63.4401 23.6947 56.8816C20.9263 61.6556 20.8969 67.8989 23.6198 72.6987C25.0178 75.1627 27.9911 77.4176 30.4899 76.0819C32.7765 74.8601 32.8436 71.5248 31.8316 69.1381C30.8189 66.7514 29.0542 64.6463 28.6251 62.0895C28.0487 58.6535 29.995 55.3752 31.1467 52.0872C32.2984 48.7993 32.2414 44.3435 29.1512 42.7352C32.5878 43.5255 35.1938 47.001 34.9901 50.5215C40.4646 46.5462 41.1003 37.4476 36.2311 32.7497C41.7691 32.6395 47.3089 35.0495 51.0037 39.1764C54.6985 43.3038 56.483 49.0749 55.7627 54.5674C57.8618 52.6175 59.1669 49.8365 59.3257 46.9765C61.3888 49.2775 61.6681 52.6679 61.3697 55.7443C61.0712 58.8207 60.303 61.8965 60.674 64.9645C61.0449 68.0332 62.9606 71.2192 65.9963 71.7993C64.7481 69.4605 64.8745 66.4494 66.3144 64.2233C68.3452 70.6727 70.1644 77.997 66.9023 83.9191C64.8691 87.6104 61.1108 90.1055 57.126 91.4765C53.1417 92.8482 48.8795 93.0231 42.0795 93.5996Z"
              fill="white"
            />
          </mask>
          <g mask="url(#mask0_237_216)">
            <path
              d="M41.3087 94.6118C35.7923 94.5411 30.6827 90.7834 28.29 85.8122C25.8979 80.8411 26.0195 74.8902 27.8867 69.6991C29.7539 64.5081 33.2414 60.0205 37.2879 56.2705C34.9827 59.5998 33.6219 63.5751 33.4032 67.6186C40.7251 63.312 43.1897 52.4852 38.4534 45.4336C44.7596 49.3273 50.7297 54.039 54.8338 60.2098C58.9379 66.3806 60.9992 74.1915 59.1128 81.3588C57.2259 88.5261 50.8759 94.7347 41.3087 94.6118Z"
              fill="#D44A15"
            />
          </g>
          <mask
            id="mask1_237_216"
            maskUnits="userSpaceOnUse"
            x="18"
            y="32"
            width="51"
            height="62"
          >
            <path
              d="M42.0795 93.5996C33.3338 94.3408 24.376 89.3176 20.4463 81.4695C16.5166 73.6215 17.8619 63.4401 23.6947 56.8816C20.9263 61.6556 20.8969 67.8989 23.6198 72.6987C25.0178 75.1627 27.9911 77.4176 30.4899 76.0819C32.7765 74.8601 32.8436 71.5248 31.8316 69.1381C30.8189 66.7514 29.0542 64.6463 28.6251 62.0895C28.0487 58.6535 29.995 55.3752 31.1467 52.0872C32.2984 48.7993 32.2414 44.3435 29.1512 42.7352C32.5878 43.5255 35.1938 47.001 34.9901 50.5215C40.4646 46.5462 41.1003 37.4476 36.2311 32.7497C41.7691 32.6395 47.3089 35.0495 51.0037 39.1764C54.6985 43.3038 56.483 49.0749 55.7627 54.5674C57.8618 52.6175 59.1669 49.8365 59.3257 46.9765C61.3888 49.2775 61.6681 52.6679 61.3697 55.7443C61.0712 58.8207 60.303 61.8965 60.674 64.9645C61.0449 68.0332 62.9606 71.2192 65.9963 71.7993C64.7481 69.4605 64.8745 66.4494 66.3144 64.2233C68.3452 70.6727 70.1644 77.997 66.9023 83.9191C64.8691 87.6104 61.1108 90.1055 57.126 91.4765C53.1417 92.8482 48.8795 93.0231 42.0795 93.5996Z"
              fill="white"
            />
          </mask>
          <g mask="url(#mask1_237_216)">
            <path
              d="M50.7339 70.0984C54.2334 72.5846 55.7506 77.5252 54.2502 81.5472C53.9404 82.3771 53.5017 83.1555 52.9582 83.8716C52.389 80.7179 50.1509 78.0076 47.5101 76.1416C45.2666 74.5567 42.4179 73.0604 42.0236 70.3417C41.6892 68.0347 43.3365 65.9596 44.8795 64.2117C42.5252 65.2315 40.2996 66.7608 38.9825 68.9629C37.6655 71.165 37.4228 74.121 38.8423 76.2584C39.7004 77.5504 41.1583 78.6703 41.075 80.2193C40.9941 81.7246 39.4901 82.7001 38.7393 84.0076C38.3018 84.7692 38.1538 85.6351 38.2048 86.507C37.536 86.0228 36.9344 85.4457 36.4418 84.7824C35.0331 82.8846 34.5028 80.3607 35.0301 78.0567C32.91 80.5381 32.6086 84.3204 34.0401 87.2536C35.4717 90.1868 38.4552 92.2253 41.6647 92.8168C44.8741 93.4082 48.2555 92.6364 51.0785 90.9987C54.9704 88.7409 57.9246 84.623 58.0738 80.1258C58.2236 75.6293 55.137 71.026 50.7339 70.0984Z"
              fill="#F6DF86"
            />
          </g>
          <path
            d="M42.0793 93.5964C33.3336 94.3377 24.3758 89.3144 20.4461 81.4664C16.5164 73.6183 17.8617 63.4369 23.6945 56.8784C20.9261 61.6524 20.8968 67.8958 23.6196 72.6955C25.0176 75.1595 27.991 77.4144 30.4897 76.0787C32.7764 74.8569 32.8435 71.5216 31.8314 69.1349C30.8187 66.7482 29.054 64.6432 28.6249 62.0863C28.0485 58.6503 29.9948 55.372 31.1465 52.0841C32.2982 48.7961 32.2412 44.3403 29.1511 42.732C32.5876 43.5224 35.1936 46.9979 34.9899 50.5183C40.4644 46.543 41.1002 37.4445 36.2309 32.7465C41.7689 32.6363 47.3087 35.0463 51.0035 39.1732C54.6983 43.3006 56.4828 49.0718 55.7625 54.5642C57.8616 52.6144 59.1667 49.8334 59.3255 46.9733C61.3887 49.2743 61.6679 52.6647 61.3695 55.7411C61.0711 58.8175 60.3029 61.8933 60.6738 64.9614C61.0447 68.03 62.9604 71.2161 65.9961 71.7961C64.7479 69.4573 64.8743 66.4462 66.3143 64.2201C68.345 70.6696 70.1643 77.9939 66.9021 83.916C64.8689 87.6072 61.1106 90.1023 57.1258 91.4734C53.1415 92.845 48.8793 93.02 42.0793 93.5964Z"
            stroke="#560000"
            stroke-width="2.5"
            stroke-miterlimit="10"
            stroke-linecap="round"
            stroke-linejoin="round"
          />
          <path
            d="M59.5708 69.5125C61.7364 67.1893 63.2135 64.3268 64.7727 61.5596C66.3318 58.7924 68.051 56.024 70.5486 54.0615C73.0461 52.0991 76.5714 52.2914 79.6508 53.1405C73.8695 52.3813 71.17 55.7022 69.2435 59.8332C67.317 63.9649 66.946 68.625 66.4828 73.148C66.49 73.0857 66.4966 73.0228 59.5708 69.5125Z"
            fill="#722A2A"
            stroke="#560000"
            stroke-width="2.5"
            stroke-miterlimit="10"
            stroke-linecap="round"
            stroke-linejoin="round"
          />
          <path
            d="M62.4814 64.6862C60.1881 64.3512 57.8158 64.8786 55.8318 66.077C51.518 68.683 49.2445 73.0178 46.8644 77.1722C44.0942 82.0067 40.9896 86.8263 36.502 90.1286C32.0145 93.4315 25.8413 94.9565 20.7634 92.6621C16.5713 90.768 13.8298 85.78 14.6544 81.4339C14.8605 80.3469 13.4098 79.7315 12.744 80.6147C10.8733 83.0991 10.5946 87.5429 11.4132 90.6535C13.3121 97.8676 19.4452 101.998 26.8288 103.325C31.2516 104.12 35.8243 103.683 40.1046 102.314C49.6987 99.2446 57.0781 92.5459 63.8769 85.5206C66.8623 82.4358 69.8949 79.0046 70.5727 74.7657C71.2402 70.5909 68.5149 65.5671 62.4814 64.6862Z"
            fill="#D83624"
            stroke="#560000"
            stroke-width="2.5"
            stroke-miterlimit="10"
            stroke-linecap="round"
            stroke-linejoin="round"
          />
          <path
            d="M61.9015 80.2581C64.565 78.5282 66.6911 76.1079 68.8735 73.8003C71.0558 71.4927 73.394 69.2228 76.2924 67.9231C79.1903 66.624 82.5639 67.6631 85.3473 69.2324C79.9213 67.0962 76.4986 69.6651 73.6295 73.2077C70.7604 76.7503 69.2725 81.1821 67.7283 85.4588C67.7505 85.3995 67.7721 85.3401 61.9015 80.2581Z"
            fill="#722A2A"
            stroke="#560000"
            stroke-width="2.5"
            stroke-miterlimit="10"
            stroke-linecap="round"
            stroke-linejoin="round"
          />
          <path
            d="M65.8934 76.2785C63.7494 75.3989 61.3202 75.3359 59.1054 76.0184C54.2889 77.5033 51.0339 81.1592 47.719 84.6137C43.8612 88.6339 39.6828 92.5588 34.5295 94.677C29.3762 96.7953 23.0172 96.7815 18.6459 93.3264C15.0368 90.4741 13.5843 84.9708 15.4359 80.9537C15.8991 79.9488 14.6401 79.0008 13.7808 79.6971C11.3641 81.6547 10.0183 85.899 10.0596 89.1151C10.1567 96.5742 15.1075 102.066 21.95 105.141C26.0493 106.983 30.5914 107.666 35.076 107.373C45.128 106.717 53.9096 102.003 62.2058 96.8319C65.8491 94.5608 69.6218 91.9662 71.3056 88.0173C72.9631 84.1271 71.5345 78.5927 65.8934 76.2785Z"
            fill="#D83624"
            stroke="#560000"
            stroke-width="2.5"
            stroke-miterlimit="10"
            stroke-linecap="round"
            stroke-linejoin="round"
          />
        </svg>